<?xml version="1.0" encoding="utf-8"?>
<!-- Generator: Adobe Illustrator 21.0.0, SVG Export Plug-In . SVG Version: 6.00 Build 0)  -->
<svg version="1.1" xmlns="http://www.w3.org/2000/svg" xmlns:xlink="http://www.w3.org/1999/xlink" x="0px" y="0px"
	 viewBox="0 0 177.4 202.6" style="enable-background:new 0 0 177.4 202.6;" xml:space="preserve">
<style type="text/css">
	.st0{fill:#A1142B;}
	.st1{fill:#9E1B34;}
	.st2{fill:#FFFFFF;}
</style>
<g id="Layer_1">
	<g>
		<g>
			<path class="st0" d="M54.4,137.2v5H31.2v-3.9l12.5-11.9c1.4-1.4,2.4-2.5,2.9-3.5c0.5-1,0.7-2,0.7-3c0-1.5-0.5-2.6-1.5-3.4
				c-1-0.8-2.4-1.2-4.4-1.2c-3.2,0-5.7,1.1-7.4,3.3l-4.1-3.2c1.2-1.6,2.9-2.9,5-3.8c2.1-0.9,4.4-1.4,7-1.4c3.4,0,6.1,0.8,8.2,2.4
				c2,1.6,3.1,3.8,3.1,6.6c0,1.7-0.4,3.3-1.1,4.8c-0.7,1.5-2.1,3.2-4.1,5.1l-8.4,8H54.4z"/>
			<path class="st0" d="M63.9,135.7c-2-1.3-3.5-3.1-4.7-5.6c-1.1-2.4-1.7-5.3-1.7-8.7c0-3.4,0.6-6.3,1.7-8.7
				c1.1-2.4,2.7-4.3,4.7-5.6c2-1.3,4.2-1.9,6.8-1.9c2.5,0,4.8,0.6,6.8,1.9c2,1.3,3.6,3.1,4.7,5.6c1.1,2.4,1.7,5.3,1.7,8.7
				c0,3.4-0.6,6.3-1.7,8.7c-1.1,2.4-2.7,4.3-4.7,5.6c-2,1.3-4.3,1.9-6.8,1.9C68.2,137.6,65.9,137,63.9,135.7z M76,129.7
				c1.3-1.9,2-4.6,2-8.3c0-3.7-0.7-6.5-2-8.3c-1.3-1.9-3.1-2.8-5.3-2.8c-2.2,0-4,0.9-5.3,2.8c-1.3,1.9-2,4.6-2,8.3
				c0,3.7,0.7,6.5,2,8.3c1.3,1.9,3.1,2.8,5.3,2.8C72.9,132.5,74.7,131.6,76,129.7z"/>
			<path class="st0" d="M113.9,132.6v6H85.5v-4.8l15.3-14.5c1.7-1.6,2.9-3.1,3.5-4.3c0.6-1.2,0.9-2.4,0.9-3.7c0-1.8-0.6-3.2-1.8-4.1
				c-1.2-1-3-1.4-5.3-1.4c-3.9,0-6.9,1.3-9,4l-5-3.8c1.5-2,3.5-3.6,6.1-4.7c2.5-1.1,5.4-1.7,8.5-1.7c4.2,0,7.5,1,10,3
				c2.5,2,3.7,4.7,3.7,8.1c0,2.1-0.4,4-1.3,5.9c-0.9,1.8-2.6,3.9-5.1,6.3l-10.3,9.8H113.9z"/>
			<path class="st0" d="M147.4,107v4.8l-14.9,33.7h-7.6l14.4-32.4h-15.1v6.5h-6.6V107H147.4z"/>
		</g>
		<g>
			
				<rect x="49.3" y="60.4" transform="matrix(-6.436362e-04 -1 1 -6.436362e-04 11.8747 145.8255)" class="st1" width="59.1" height="13.1"/>
			
				<rect x="69" y="50.6" transform="matrix(-6.384455e-04 -1 1 -6.384455e-04 41.4777 155.754)" class="st1" width="59.1" height="13.1"/>
		</g>
		<g>
			<path class="st0" d="M69.6,152.5v9h-1.4l-4.9-6.1v6.1h-1.7v-9H63l4.9,6.1v-6.1H69.6z"/>
			<path class="st0" d="M76.8,155.3c0.5,0.5,0.8,1.2,0.8,2.2v4h-1.5v-0.8c-0.2,0.3-0.5,0.5-0.8,0.7c-0.4,0.2-0.8,0.2-1.3,0.2
				s-1-0.1-1.3-0.3c-0.4-0.2-0.7-0.4-0.9-0.7c-0.2-0.3-0.3-0.7-0.3-1.1c0-0.6,0.2-1.1,0.7-1.5c0.5-0.4,1.2-0.6,2.2-0.6H76v-0.1
				c0-0.5-0.1-0.8-0.4-1.1c-0.3-0.3-0.7-0.4-1.3-0.4c-0.4,0-0.8,0.1-1.1,0.2c-0.4,0.1-0.7,0.3-0.9,0.5l-0.6-1.2
				c0.4-0.3,0.8-0.5,1.3-0.6c0.5-0.1,1-0.2,1.6-0.2C75.5,154.5,76.3,154.8,76.8,155.3z M75.3,160.1c0.3-0.2,0.5-0.4,0.7-0.8v-0.8
				h-1.7c-0.9,0-1.4,0.3-1.4,0.9c0,0.3,0.1,0.5,0.3,0.7c0.2,0.2,0.6,0.3,1,0.3C74.7,160.4,75,160.3,75.3,160.1z"/>
			<path class="st0" d="M83.7,161.1c-0.2,0.2-0.4,0.3-0.7,0.3c-0.3,0.1-0.6,0.1-0.9,0.1c-0.8,0-1.3-0.2-1.7-0.6
				c-0.4-0.4-0.6-1-0.6-1.7v-3.3h-1.1v-1.3h1.1v-1.6h1.6v1.6h1.8v1.3h-1.8v3.2c0,0.3,0.1,0.6,0.2,0.8c0.2,0.2,0.4,0.3,0.7,0.3
				c0.4,0,0.7-0.1,0.9-0.3L83.7,161.1z"/>
			<path class="st0" d="M85.1,153.2c-0.2-0.2-0.3-0.4-0.3-0.7c0-0.3,0.1-0.5,0.3-0.7c0.2-0.2,0.4-0.3,0.7-0.3c0.3,0,0.5,0.1,0.7,0.3
				c0.2,0.2,0.3,0.4,0.3,0.7c0,0.3-0.1,0.5-0.3,0.7c-0.2,0.2-0.4,0.3-0.7,0.3C85.6,153.5,85.3,153.4,85.1,153.2z M85.1,154.6h1.6
				v6.8h-1.6V154.6z"/>
			<path class="st0" d="M90,161.1c-0.6-0.3-1-0.7-1.3-1.2c-0.3-0.5-0.5-1.1-0.5-1.8c0-0.7,0.2-1.3,0.5-1.8c0.3-0.5,0.7-0.9,1.3-1.2
				c0.6-0.3,1.2-0.4,1.9-0.4c0.7,0,1.3,0.1,1.9,0.4c0.6,0.3,1,0.7,1.3,1.2c0.3,0.5,0.5,1.1,0.5,1.8c0,0.7-0.2,1.3-0.5,1.8
				c-0.3,0.5-0.7,0.9-1.3,1.2c-0.6,0.3-1.2,0.4-1.9,0.4C91.1,161.5,90.5,161.4,90,161.1z M93.3,159.6c0.4-0.4,0.6-0.9,0.6-1.5
				s-0.2-1.2-0.6-1.5c-0.4-0.4-0.9-0.6-1.5-0.6s-1.1,0.2-1.5,0.6c-0.4,0.4-0.6,0.9-0.6,1.5s0.2,1.2,0.6,1.5c0.4,0.4,0.9,0.6,1.5,0.6
				S92.9,160,93.3,159.6z"/>
			<path class="st0" d="M103,155.3c0.5,0.5,0.8,1.2,0.8,2.2v3.9h-1.6v-3.7c0-0.6-0.1-1-0.4-1.3c-0.3-0.3-0.7-0.5-1.2-0.5
				c-0.6,0-1.1,0.2-1.4,0.5c-0.3,0.4-0.5,0.9-0.5,1.5v3.5H97v-6.8h1.5v0.9c0.3-0.3,0.6-0.6,1-0.7c0.4-0.2,0.9-0.2,1.4-0.2
				C101.8,154.5,102.4,154.8,103,155.3z"/>
			<path class="st0" d="M110.7,155.3c0.5,0.5,0.8,1.2,0.8,2.2v4H110v-0.8c-0.2,0.3-0.5,0.5-0.8,0.7c-0.4,0.2-0.8,0.2-1.3,0.2
				c-0.5,0-1-0.1-1.3-0.3s-0.7-0.4-0.9-0.7c-0.2-0.3-0.3-0.7-0.3-1.1c0-0.6,0.2-1.1,0.7-1.5c0.5-0.4,1.2-0.6,2.2-0.6h1.8v-0.1
				c0-0.5-0.1-0.8-0.4-1.1c-0.3-0.3-0.7-0.4-1.3-0.4c-0.4,0-0.8,0.1-1.1,0.2c-0.4,0.1-0.7,0.3-0.9,0.5l-0.6-1.2
				c0.4-0.3,0.8-0.5,1.3-0.6c0.5-0.1,1-0.2,1.6-0.2C109.4,154.5,110.2,154.8,110.7,155.3z M109.2,160.1c0.3-0.2,0.5-0.4,0.7-0.8
				v-0.8h-1.7c-0.9,0-1.4,0.3-1.4,0.9c0,0.3,0.1,0.5,0.3,0.7c0.2,0.2,0.6,0.3,1,0.3C108.6,160.4,108.9,160.3,109.2,160.1z"/>
			<path class="st0" d="M113.5,152h1.6v9.5h-1.6V152z"/>
			<path class="st0" d="M28.3,166.1h3.9c1,0,1.8,0.2,2.5,0.6c0.7,0.4,1.3,0.9,1.7,1.6c0.4,0.7,0.6,1.5,0.6,2.3
				c0,0.9-0.2,1.7-0.6,2.3c-0.4,0.7-1,1.2-1.7,1.6c-0.7,0.4-1.6,0.6-2.5,0.6h-3.9V166.1z M32.1,173.7c0.7,0,1.2-0.1,1.7-0.4
				c0.5-0.3,0.9-0.6,1.2-1.1c0.3-0.5,0.4-1,0.4-1.6s-0.1-1.2-0.4-1.6c-0.3-0.5-0.7-0.8-1.2-1.1c-0.5-0.3-1.1-0.4-1.7-0.4h-2.2v6.1
				H32.1z"/>
			<path class="st0" d="M45.1,172.2h-5.4c0.1,0.5,0.3,0.9,0.7,1.2c0.4,0.3,0.9,0.4,1.5,0.4c0.8,0,1.4-0.2,1.9-0.7l0.9,1
				c-0.3,0.4-0.7,0.6-1.2,0.8c-0.5,0.2-1,0.3-1.6,0.3c-0.8,0-1.4-0.1-2-0.4c-0.6-0.3-1-0.7-1.3-1.2c-0.3-0.5-0.5-1.1-0.5-1.8
				c0-0.7,0.2-1.3,0.5-1.8c0.3-0.5,0.7-0.9,1.3-1.2c0.5-0.3,1.1-0.4,1.8-0.4c0.7,0,1.3,0.1,1.8,0.4c0.5,0.3,0.9,0.7,1.2,1.2
				c0.3,0.5,0.4,1.1,0.4,1.8C45.1,171.8,45.1,172,45.1,172.2z M40.4,169.9c-0.4,0.3-0.6,0.7-0.6,1.2h3.9c-0.1-0.5-0.3-0.9-0.6-1.2
				c-0.3-0.3-0.8-0.5-1.3-0.5C41.1,169.5,40.7,169.6,40.4,169.9z"/>
			<path class="st0" d="M52.9,168.3l-2.9,6.8h-1.7l-2.9-6.8h1.7l2.1,5.1l2.2-5.1H52.9z"/>
			<path class="st0" d="M60.1,172.2h-5.4c0.1,0.5,0.3,0.9,0.7,1.2c0.4,0.3,0.9,0.4,1.5,0.4c0.8,0,1.4-0.2,1.9-0.7l0.9,1
				c-0.3,0.4-0.7,0.6-1.2,0.8c-0.5,0.2-1,0.3-1.6,0.3c-0.8,0-1.4-0.1-2-0.4c-0.6-0.3-1-0.7-1.3-1.2c-0.3-0.5-0.5-1.1-0.5-1.8
				c0-0.7,0.2-1.3,0.5-1.8c0.3-0.5,0.7-0.9,1.3-1.2c0.5-0.3,1.1-0.4,1.8-0.4c0.7,0,1.3,0.1,1.8,0.4c0.5,0.3,0.9,0.7,1.2,1.2
				c0.3,0.5,0.4,1.1,0.4,1.8C60.1,171.8,60.1,172,60.1,172.2z M55.4,169.9c-0.4,0.3-0.6,0.7-0.6,1.2h3.9c-0.1-0.5-0.3-0.9-0.6-1.2
				c-0.3-0.3-0.8-0.5-1.3-0.5C56.2,169.5,55.7,169.6,55.4,169.9z"/>
			<path class="st0" d="M61.7,165.6h1.6v9.5h-1.6V165.6z"/>
			<path class="st0" d="M66.6,174.7c-0.6-0.3-1-0.7-1.3-1.2c-0.3-0.5-0.5-1.1-0.5-1.8c0-0.7,0.2-1.3,0.5-1.8
				c0.3-0.5,0.7-0.9,1.3-1.2c0.6-0.3,1.2-0.4,1.9-0.4c0.7,0,1.3,0.1,1.9,0.4c0.6,0.3,1,0.7,1.3,1.2c0.3,0.5,0.5,1.1,0.5,1.8
				c0,0.7-0.2,1.3-0.5,1.8c-0.3,0.5-0.7,0.9-1.3,1.2c-0.6,0.3-1.2,0.4-1.9,0.4C67.8,175.2,67.1,175,66.6,174.7z M69.9,173.2
				c0.4-0.4,0.6-0.9,0.6-1.5s-0.2-1.2-0.6-1.5c-0.4-0.4-0.9-0.6-1.5-0.6c-0.6,0-1.1,0.2-1.5,0.6c-0.4,0.4-0.6,0.9-0.6,1.5
				s0.2,1.2,0.6,1.5c0.4,0.4,0.9,0.6,1.5,0.6C69,173.8,69.5,173.6,69.9,173.2z"/>
			<path class="st0" d="M79.2,168.6c0.5,0.3,0.9,0.7,1.2,1.2c0.3,0.5,0.4,1.1,0.4,1.8c0,0.7-0.1,1.3-0.4,1.8
				c-0.3,0.5-0.7,0.9-1.2,1.2c-0.5,0.3-1.1,0.4-1.8,0.4c-0.9,0-1.7-0.3-2.2-0.9v3.3h-1.6v-9.3h1.5v0.9c0.3-0.3,0.6-0.6,1-0.7
				c0.4-0.2,0.8-0.2,1.3-0.2C78.1,168.2,78.7,168.3,79.2,168.6z M78.7,173.2c0.4-0.4,0.6-0.9,0.6-1.5s-0.2-1.2-0.6-1.5
				c-0.4-0.4-0.9-0.6-1.5-0.6c-0.4,0-0.7,0.1-1,0.3c-0.3,0.2-0.6,0.4-0.7,0.7c-0.2,0.3-0.3,0.7-0.3,1.1c0,0.4,0.1,0.8,0.3,1.1
				c0.2,0.3,0.4,0.6,0.7,0.7c0.3,0.2,0.7,0.3,1,0.3C77.8,173.8,78.3,173.6,78.7,173.2z"/>
			<path class="st0" d="M93.1,168.9c0.5,0.5,0.8,1.2,0.8,2.2v3.9h-1.6v-3.7c0-0.6-0.1-1-0.4-1.3c-0.3-0.3-0.6-0.5-1.1-0.5
				c-0.5,0-1,0.2-1.3,0.5c-0.3,0.4-0.5,0.9-0.5,1.5v3.5h-1.6v-3.7c0-0.6-0.1-1-0.4-1.3c-0.3-0.3-0.6-0.5-1.1-0.5
				c-0.5,0-1,0.2-1.3,0.5c-0.3,0.3-0.5,0.9-0.5,1.5v3.5h-1.6v-6.8h1.5v0.9c0.3-0.3,0.6-0.5,1-0.7c0.4-0.2,0.8-0.2,1.3-0.2
				c0.5,0,1,0.1,1.4,0.3c0.4,0.2,0.7,0.5,0.9,0.9c0.3-0.4,0.6-0.6,1.1-0.8c0.4-0.2,0.9-0.3,1.5-0.3
				C91.9,168.2,92.6,168.4,93.1,168.9z"/>
			<path class="st0" d="M102.3,172.2H97c0.1,0.5,0.3,0.9,0.7,1.2c0.4,0.3,0.9,0.4,1.5,0.4c0.8,0,1.4-0.2,1.9-0.7l0.9,1
				c-0.3,0.4-0.7,0.6-1.2,0.8c-0.5,0.2-1,0.3-1.6,0.3c-0.8,0-1.4-0.1-2-0.4c-0.6-0.3-1-0.7-1.3-1.2c-0.3-0.5-0.5-1.1-0.5-1.8
				c0-0.7,0.2-1.3,0.5-1.8c0.3-0.5,0.7-0.9,1.3-1.2c0.5-0.3,1.1-0.4,1.8-0.4c0.7,0,1.3,0.1,1.8,0.4c0.5,0.3,0.9,0.7,1.2,1.2
				c0.3,0.5,0.4,1.1,0.4,1.8C102.4,171.8,102.4,172,102.3,172.2z M97.6,169.9c-0.4,0.3-0.6,0.7-0.6,1.2h3.9
				c-0.1-0.5-0.3-0.9-0.6-1.2c-0.3-0.3-0.8-0.5-1.3-0.5C98.4,169.5,98,169.6,97.6,169.9z"/>
			<path class="st0" d="M109.8,169c0.5,0.5,0.8,1.2,0.8,2.2v3.9H109v-3.7c0-0.6-0.1-1-0.4-1.3c-0.3-0.3-0.7-0.5-1.2-0.5
				c-0.6,0-1.1,0.2-1.4,0.5c-0.3,0.4-0.5,0.9-0.5,1.5v3.5h-1.6v-6.8h1.5v0.9c0.3-0.3,0.6-0.6,1-0.7c0.4-0.2,0.9-0.2,1.4-0.2
				C108.6,168.2,109.3,168.4,109.8,169z"/>
			<path class="st0" d="M116.8,174.7c-0.2,0.2-0.4,0.3-0.7,0.3c-0.3,0.1-0.6,0.1-0.9,0.1c-0.8,0-1.3-0.2-1.7-0.6
				c-0.4-0.4-0.6-1-0.6-1.7v-3.3h-1.1v-1.3h1.1v-1.6h1.6v1.6h1.8v1.3h-1.8v3.2c0,0.3,0.1,0.6,0.2,0.8c0.2,0.2,0.4,0.3,0.7,0.3
				c0.4,0,0.7-0.1,0.9-0.3L116.8,174.7z"/>
			<path class="st0" d="M127.5,166.5c0.6,0.3,1,0.6,1.3,1.1c0.3,0.5,0.5,1,0.5,1.7c0,0.6-0.2,1.2-0.5,1.7c-0.3,0.5-0.7,0.9-1.3,1.1
				c-0.6,0.3-1.3,0.4-2,0.4h-2v2.6h-1.7v-9h3.7C126.2,166.1,126.9,166.3,127.5,166.5z M127,170.7c0.4-0.3,0.6-0.7,0.6-1.3
				c0-0.6-0.2-1-0.6-1.3c-0.4-0.3-0.9-0.5-1.7-0.5h-1.9v3.6h1.9C126.1,171.1,126.7,171,127,170.7z"/>
			<path class="st0" d="M130.9,165.6h1.6v9.5h-1.6V165.6z"/>
			<path class="st0" d="M139.5,168.9c0.5,0.5,0.8,1.2,0.8,2.2v4h-1.5v-0.8c-0.2,0.3-0.5,0.5-0.8,0.7c-0.4,0.2-0.8,0.2-1.3,0.2
				s-1-0.1-1.3-0.3c-0.4-0.2-0.7-0.4-0.9-0.7c-0.2-0.3-0.3-0.7-0.3-1.1c0-0.6,0.2-1.1,0.7-1.5c0.5-0.4,1.2-0.6,2.2-0.6h1.8V171
				c0-0.5-0.1-0.8-0.4-1.1c-0.3-0.3-0.7-0.4-1.3-0.4c-0.4,0-0.8,0.1-1.1,0.2c-0.4,0.1-0.7,0.3-0.9,0.5l-0.6-1.2
				c0.4-0.3,0.8-0.5,1.3-0.6c0.5-0.1,1-0.2,1.6-0.2C138.2,168.2,139,168.4,139.5,168.9z M138.1,173.8c0.3-0.2,0.5-0.4,0.7-0.8v-0.8
				h-1.7c-0.9,0-1.4,0.3-1.4,0.9c0,0.3,0.1,0.5,0.3,0.7c0.2,0.2,0.6,0.3,1,0.3C137.4,174,137.8,173.9,138.1,173.8z"/>
			<path class="st0" d="M148.3,169c0.5,0.5,0.8,1.2,0.8,2.2v3.9h-1.6v-3.7c0-0.6-0.1-1-0.4-1.3c-0.3-0.3-0.7-0.5-1.2-0.5
				c-0.6,0-1.1,0.2-1.4,0.5c-0.3,0.4-0.5,0.9-0.5,1.5v3.5h-1.6v-6.8h1.5v0.9c0.3-0.3,0.6-0.6,1-0.7c0.4-0.2,0.9-0.2,1.4-0.2
				C147.1,168.2,147.8,168.4,148.3,169z"/>
		</g>
	</g>
</g>
<g id="Layer_2">
</g>
</svg>
