<?xml version="1.0" encoding="utf-8"?>
<!-- Generator: Adobe Illustrator 21.0.0, SVG Export Plug-In . SVG Version: 6.00 Build 0)  -->
<svg version="1.1" id="Layer_1" xmlns="http://www.w3.org/2000/svg" xmlns:xlink="http://www.w3.org/1999/xlink" x="0px" y="0px"
	 viewBox="0 0 313.1 72.7" style="enable-background:new 0 0 313.1 72.7;" xml:space="preserve">
<style type="text/css">
	.st0{fill:#323031;}
	.st1{fill:#333232;}
	.st2{fill:#F15A26;}
	.st3{fill:#87B04A;}
</style>
<g>
	<g>
		<path class="st0" d="M135,30.5c-0.1,0.4-0.3,0.8-0.5,1c-0.3,0.2-0.5,0.3-0.8,0.3c-0.3,0-0.6-0.1-0.8-0.3c-0.2-0.2-0.4-0.5-0.5-1
			L126,11.4c-0.2-0.5-0.2-0.8-0.1-1.1c0.1-0.5,0.6-0.8,1.1-0.8c0.2,0,0.5,0.1,0.6,0.2c0.2,0.2,0.3,0.4,0.5,0.9l5.5,16.9l5.5-16.9
			c0.2-0.5,0.3-0.7,0.5-0.9c0.2-0.2,0.4-0.2,0.6-0.2c0.5,0,1,0.3,1.1,0.8c0.1,0.3,0,0.5-0.1,1.1L135,30.5z"/>
		<path class="st0" d="M147.7,30.2c0,0.6,0,0.8-0.2,1.1c-0.2,0.3-0.5,0.5-1,0.5c-0.4,0-0.8-0.2-1-0.5c-0.2-0.3-0.2-0.5-0.2-1.1v-19
			c0-0.6,0-0.8,0.2-1.1c0.2-0.3,0.5-0.5,1-0.5c0.4,0,0.8,0.2,1,0.5c0.2,0.3,0.2,0.5,0.2,1.1V30.2z"/>
		<path class="st0" d="M154.4,31.3c-0.3-0.3-0.3-0.7-0.3-1.1V11.1c0-0.4,0-0.8,0.3-1.1c0.3-0.3,0.7-0.3,1.1-0.3h6.1
			c2.5,0,4.3,0.7,5.8,2.3c1.9,2.1,1.9,5.3,1.9,8.7c0,3.4,0,6.6-1.9,8.7c-1.5,1.6-3.3,2.3-5.8,2.3h-6.1
			C155.1,31.7,154.7,31.7,154.4,31.3z M156.4,11.8v17.8h4.8c1.7,0,3.2-0.4,4.3-1.6c1.4-1.5,1.4-4.2,1.4-7.3c0-3,0-5.8-1.4-7.3
			c-1.1-1.2-2.7-1.6-4.3-1.6H156.4z"/>
		<path class="st0" d="M174.7,31.7c-0.5,0-0.9-0.1-1.2-0.3c-0.2-0.2-0.3-0.5-0.3-0.8c0-0.3,0.1-0.6,0.4-1.1l10.7-17.7h-9.2
			c-0.6,0-0.8,0-1-0.2c-0.3-0.2-0.4-0.5-0.4-0.9c0-0.4,0.2-0.7,0.4-0.9c0.2-0.1,0.4-0.2,1-0.2h10.6c0.5,0,0.9,0.1,1.2,0.3
			c0.2,0.2,0.3,0.5,0.3,0.8c0,0.3-0.1,0.6-0.4,1.1l-10.7,17.7h9.6c0.6,0,0.8,0,1,0.2c0.3,0.2,0.4,0.5,0.4,0.9c0,0.4-0.2,0.7-0.4,0.9
			c-0.2,0.1-0.4,0.2-1,0.2H174.7z"/>
		<path class="st0" d="M204.2,9.6c0.6,0,0.8,0,1,0.2c0.3,0.2,0.4,0.5,0.4,0.9c0,0.4-0.2,0.7-0.4,0.9c-0.2,0.1-0.4,0.2-1,0.2h-9.9
			v7.8h8.3c0.6,0,0.8,0,1,0.2c0.3,0.2,0.4,0.5,0.4,0.9c0,0.4-0.2,0.7-0.4,0.9c-0.2,0.1-0.4,0.2-1,0.2h-8.3v7.9h9.9
			c0.6,0,0.8,0,1,0.2c0.3,0.2,0.4,0.5,0.4,0.9c0,0.4-0.2,0.7-0.4,0.9c-0.2,0.1-0.4,0.2-1,0.2h-10.9c-0.4,0-0.8,0-1.1-0.3
			c-0.3-0.3-0.3-0.7-0.3-1.1V11.1c0-0.4,0-0.8,0.3-1.1c0.3-0.3,0.7-0.3,1.1-0.3H204.2z"/>
		<path class="st0" d="M218.5,27.3l-5.7-12.2v15.1c0,0.6,0,0.8-0.2,1.1c-0.2,0.3-0.5,0.5-1,0.5c-0.4,0-0.8-0.2-1-0.5
			c-0.2-0.3-0.2-0.5-0.2-1.1V11c0-0.5,0.1-0.9,0.4-1.2c0.2-0.2,0.5-0.4,0.9-0.4c0.3,0,0.5,0.1,0.7,0.2c0.2,0.1,0.4,0.4,0.6,0.8
			l6.9,14.8l6.9-14.8c0.2-0.4,0.4-0.7,0.6-0.8c0.2-0.1,0.4-0.2,0.7-0.2c0.3,0,0.6,0.1,0.9,0.4c0.3,0.3,0.4,0.6,0.4,1.2v19.1
			c0,0.6,0,0.8-0.2,1.1c-0.2,0.3-0.5,0.5-1,0.5c-0.4,0-0.8-0.2-1-0.5c-0.2-0.3-0.2-0.5-0.2-1.1V15.1l-5.7,12.2
			c-0.3,0.7-0.7,1.1-1.4,1.1C219.2,28.4,218.9,28,218.5,27.3z"/>
		<path class="st0" d="M248,9.6c0.6,0,0.8,0,1,0.2c0.3,0.2,0.4,0.5,0.4,0.9c0,0.4-0.2,0.7-0.4,0.9c-0.2,0.1-0.4,0.2-1,0.2h-9.9v7.8
			h8.3c0.6,0,0.8,0,1,0.2c0.3,0.2,0.4,0.5,0.4,0.9c0,0.4-0.2,0.7-0.4,0.9c-0.2,0.1-0.4,0.2-1,0.2h-8.3v7.9h9.9c0.6,0,0.8,0,1,0.2
			c0.3,0.2,0.4,0.5,0.4,0.9c0,0.4-0.2,0.7-0.4,0.9c-0.2,0.1-0.4,0.2-1,0.2h-10.9c-0.4,0-0.8,0-1.1-0.3c-0.3-0.3-0.3-0.7-0.3-1.1
			V11.1c0-0.4,0-0.8,0.3-1.1c0.3-0.3,0.7-0.3,1.1-0.3H248z"/>
		<path class="st0" d="M258.7,21.4c-1.7-0.3-2.9-0.7-4-1.7c-1.2-1-1.7-2.4-1.7-4.1c0-3.7,2.7-6.2,7.1-6.2c2.3,0,3.5,0.4,5.4,1.5
			c0.5,0.3,0.9,0.7,0.9,1.2c0,0.3-0.1,0.5-0.3,0.7c-0.2,0.2-0.4,0.3-0.7,0.3c-0.3,0-0.7-0.2-1.1-0.4c-1.5-1-2.5-1.3-4.3-1.3
			c-3,0-4.7,1.6-4.7,4.1c0,1.1,0.3,2,1,2.6c0.8,0.7,1.5,1,3,1.2l2.4,0.4c2.1,0.3,3.1,0.7,4,1.5c1.2,1,1.8,2.6,1.8,4.4
			c0,3.9-3,6.2-7.6,6.2c-2.7,0-4.3-0.5-6.3-1.9c-0.6-0.4-1-0.8-1-1.3c0-0.3,0.1-0.6,0.3-0.8c0.2-0.2,0.4-0.3,0.7-0.3
			c0.3,0,0.7,0.2,1.1,0.5c1.6,1.3,3,1.7,5.2,1.7c3.2,0,5.2-1.5,5.2-4.1c0-1.2-0.4-2.1-1.1-2.8c-0.7-0.6-1.3-0.8-2.9-1.1L258.7,21.4z
			"/>
		<path class="st0" d="M132.4,40.4c0.2-0.4,0.3-0.6,0.5-0.9c0.2-0.2,0.5-0.4,0.9-0.4c0.4,0,0.7,0.2,0.9,0.4c0.2,0.2,0.3,0.4,0.5,0.9
			l7.1,19.1c0.2,0.6,0.4,1.1-0.1,1.6c-0.2,0.2-0.5,0.4-0.9,0.4c-0.2,0-0.4-0.1-0.6-0.2c-0.2-0.2-0.4-0.4-0.6-0.9l-1.5-4h-9.8l-1.5,4
			c-0.2,0.6-0.3,0.7-0.6,0.9c-0.2,0.1-0.4,0.2-0.6,0.2c-0.3,0-0.6-0.1-0.9-0.4c-0.5-0.5-0.3-1-0.1-1.6L132.4,40.4z M129.6,54.3h8.3
			l-4.1-11.3L129.6,54.3z"/>
		<path class="st0" d="M153.8,61.5c-4.5,0-7.7-3.1-7.7-7.5V40.7c0-0.6,0-0.8,0.2-1.1c0.2-0.3,0.5-0.5,1-0.5c0.4,0,0.8,0.2,1,0.5
			c0.2,0.3,0.2,0.5,0.2,1.1v13.1c0,3.3,2.1,5.5,5.3,5.5s5.3-2.2,5.3-5.5V40.7c0-0.6,0-0.8,0.2-1.1c0.2-0.3,0.5-0.5,1-0.5
			c0.4,0,0.8,0.2,1,0.5c0.2,0.3,0.2,0.5,0.2,1.1V54C161.5,58.4,158.3,61.5,153.8,61.5z"/>
		<path class="st0" d="M170.7,57.8c1,1,2.3,1.6,3.8,1.6c1.5,0,2.8-0.5,3.8-1.5c1.3-1.3,1.5-2.7,1.5-5.9h-4.1c-0.6,0-0.8,0-1-0.2
			c-0.3-0.2-0.4-0.5-0.4-0.9c0-0.4,0.2-0.7,0.4-0.9c0.2-0.1,0.4-0.2,1-0.2h4.9c0.4,0,0.8,0,1.1,0.3c0.3,0.3,0.3,0.7,0.3,1.1v0.4
			c0,4-0.4,5.8-2.2,7.6c-1.4,1.4-3.2,2.2-5.5,2.2c-2.3,0-4.1-0.8-5.5-2.2c-2.1-2.1-2.2-4-2.2-9c0-5.1,0.2-6.9,2.2-9
			c1.3-1.4,3.2-2.2,5.5-2.2c2.8,0,4.7,1.1,5.9,2.6c0.9,1.1,1.4,2.5,1.4,3.2c0,0.4-0.1,0.6-0.3,0.9c-0.2,0.2-0.5,0.3-0.8,0.3
			c-0.3,0-0.6-0.1-0.7-0.2c-0.2-0.2-0.4-0.6-0.6-1c-0.8-2.3-2.5-3.7-4.9-3.7c-1.5,0-2.8,0.5-3.8,1.6c-1.4,1.4-1.5,3.1-1.5,7.5
			C169.1,54.8,169.3,56.4,170.7,57.8z"/>
		<path class="st0" d="M192.1,51.1c-1.7-0.3-2.9-0.7-4-1.7c-1.2-1-1.7-2.4-1.7-4.1c0-3.7,2.7-6.2,7.1-6.2c2.3,0,3.5,0.4,5.4,1.5
			c0.5,0.3,0.9,0.7,0.9,1.2c0,0.3-0.1,0.5-0.3,0.7c-0.2,0.2-0.4,0.3-0.7,0.3c-0.3,0-0.7-0.2-1.1-0.4c-1.5-1-2.5-1.3-4.3-1.3
			c-3,0-4.7,1.6-4.7,4.1c0,1.1,0.3,2,1,2.6c0.8,0.7,1.5,1,3,1.2l2.4,0.4c2.1,0.3,3.1,0.7,4,1.5c1.2,1,1.8,2.6,1.8,4.4
			c0,3.9-3,6.2-7.6,6.2c-2.7,0-4.3-0.5-6.3-1.9c-0.6-0.4-1-0.8-1-1.3c0-0.3,0.1-0.6,0.3-0.8c0.2-0.2,0.4-0.3,0.7-0.3
			c0.3,0,0.7,0.2,1.1,0.5c1.6,1.3,3,1.7,5.2,1.7c3.2,0,5.2-1.5,5.2-4.1c0-1.2-0.4-2.1-1.1-2.8c-0.7-0.6-1.3-0.8-2.9-1.1L192.1,51.1z
			"/>
		<path class="st0" d="M217.1,39.3c0.6,0,0.8,0,1,0.2c0.3,0.2,0.4,0.5,0.4,0.9c0,0.4-0.2,0.7-0.4,0.9c-0.2,0.1-0.4,0.2-1,0.2h-5
			v18.4c0,0.6,0,0.8-0.2,1.1c-0.2,0.3-0.5,0.5-1,0.5s-0.8-0.2-1-0.5c-0.2-0.3-0.2-0.5-0.2-1.1V41.4h-5c-0.6,0-0.8,0-1-0.2
			c-0.3-0.2-0.4-0.5-0.4-0.9c0-0.4,0.2-0.7,0.4-0.9c0.2-0.1,0.4-0.2,1-0.2H217.1z"/>
		<path class="st0" d="M226.8,51.1c-1.7-0.3-2.9-0.7-4-1.7c-1.2-1-1.7-2.4-1.7-4.1c0-3.7,2.7-6.2,7.1-6.2c2.3,0,3.5,0.4,5.4,1.5
			c0.5,0.3,0.9,0.7,0.9,1.2c0,0.3-0.1,0.5-0.3,0.7c-0.2,0.2-0.4,0.3-0.7,0.3c-0.3,0-0.7-0.2-1.1-0.4c-1.5-1-2.5-1.3-4.3-1.3
			c-3,0-4.7,1.6-4.7,4.1c0,1.1,0.3,2,1,2.6c0.8,0.7,1.5,1,3,1.2l2.4,0.4c2.1,0.3,3.1,0.7,4,1.5c1.2,1,1.8,2.6,1.8,4.4
			c0,3.9-3,6.2-7.6,6.2c-2.7,0-4.3-0.5-6.3-1.9c-0.6-0.4-1-0.8-1-1.3c0-0.3,0.1-0.6,0.3-0.8c0.2-0.2,0.4-0.3,0.7-0.3
			c0.3,0,0.7,0.2,1.1,0.5c1.6,1.3,3,1.7,5.2,1.7c3.2,0,5.2-1.5,5.2-4.1c0-1.2-0.4-2.1-1.1-2.8c-0.7-0.6-1.3-0.8-2.9-1.1L226.8,51.1z
			"/>
		<path class="st0" d="M242.9,51.7l9.8-11.8c0.3-0.4,0.6-0.7,1.1-0.7c0.3,0,0.5,0.1,0.8,0.3c0.3,0.2,0.4,0.5,0.4,0.9
			c0,0.3-0.1,0.6-0.5,1l-5.2,6.4l6.6,11.6c0.3,0.5,0.4,0.8,0.4,1.1c0,0.4-0.2,0.7-0.6,0.9c-0.2,0.1-0.4,0.2-0.6,0.2
			c-0.6,0-0.9-0.5-1.2-1l-6.2-11l-4.6,5.5v4.8c0,0.6,0,0.8-0.2,1.1c-0.2,0.3-0.5,0.5-1,0.5c-0.4,0-0.8-0.2-1-0.5
			c-0.2-0.3-0.2-0.5-0.2-1.1v-19c0-0.6,0-0.8,0.2-1.1c0.2-0.3,0.5-0.5,1-0.5c0.4,0,0.8,0.2,1,0.5c0.2,0.3,0.2,0.5,0.2,1.1V51.7z"/>
		<path class="st0" d="M272.7,41.2c2.1,2.1,2.2,4,2.2,9c0,5.1-0.1,6.9-2.2,9c-1.4,1.3-3.2,2.2-5.5,2.2s-4.1-0.8-5.5-2.2
			c-2.1-2.1-2.2-4-2.2-9c0-5.1,0.1-6.9,2.2-9c1.4-1.3,3.2-2.2,5.5-2.2S271.3,39.9,272.7,41.2z M271,57.8c1.4-1.4,1.5-3,1.5-7.5
			c0-4.5-0.2-6.1-1.5-7.5c-1-1-2.3-1.6-3.8-1.6s-2.8,0.5-3.8,1.6c-1.4,1.4-1.5,3-1.5,7.5c0,4.5,0.2,6.1,1.5,7.5c1,1,2.3,1.6,3.8,1.6
			S270,58.8,271,57.8z"/>
		<path class="st0" d="M280.8,61c-0.3-0.3-0.3-0.7-0.3-1.1V40.7c0-0.6,0-0.8,0.2-1.1c0.2-0.3,0.5-0.5,1-0.5c0.4,0,0.8,0.2,1,0.5
			c0.2,0.3,0.2,0.5,0.2,1.1v18.4h9.9c0.6,0,0.8,0,1,0.2c0.3,0.2,0.4,0.5,0.4,0.9c0,0.4-0.2,0.7-0.4,0.9c-0.2,0.1-0.4,0.2-1,0.2
			h-10.8C281.5,61.3,281.1,61.3,280.8,61z"/>
		<path class="st0" d="M303,40.4c0.2-0.4,0.3-0.6,0.5-0.9c0.2-0.2,0.5-0.4,0.9-0.4c0.4,0,0.7,0.2,0.9,0.4c0.2,0.2,0.3,0.4,0.5,0.9
			l7.1,19.1c0.2,0.6,0.4,1.1-0.1,1.6c-0.2,0.2-0.5,0.4-0.9,0.4c-0.2,0-0.4-0.1-0.6-0.2c-0.2-0.2-0.4-0.4-0.6-0.9l-1.5-4h-9.8l-1.5,4
			c-0.2,0.6-0.3,0.7-0.6,0.9c-0.2,0.1-0.4,0.2-0.6,0.2c-0.3,0-0.6-0.1-0.9-0.4c-0.5-0.5-0.3-1-0.1-1.6L303,40.4z M300.2,54.3h8.3
			l-4.1-11.3L300.2,54.3z"/>
	</g>
</g>
<g>
	<path class="st1" d="M27.9,72.7c-0.9,0-1.8-0.6-2.2-1.5L0.1,3.1c-0.5-1.2,0.2-2.5,1.3-3c1.2-0.5,2.5,0.2,3,1.3l25.6,68
		c0.5,1.2-0.2,2.5-1.3,3C28.5,72.6,28.2,72.7,27.9,72.7z"/>
	<path class="st2" d="M50.2,14c-0.3,0-0.6,0-0.8-0.2c-1.2-0.5-1.8-1.8-1.3-3l3.6-9.4c0.5-1.2,1.8-1.8,3-1.3c1.2,0.5,1.8,1.8,1.3,3
		l-3.6,9.4C52.1,13.5,51.2,14,50.2,14z"/>
	<path class="st3" d="M98.5,68.6l-51.1-47c0,0,0,0,0,0l0,0c0,0-0.1-0.1-0.1-0.1c-0.1-0.1-0.1-0.1-0.2-0.2c-0.1,0-0.2-0.1-0.2-0.1
		c-0.1,0-0.1-0.1-0.2-0.1c0,0,0,0,0,0c-0.1,0-0.2-0.1-0.3-0.1c0,0-0.1,0-0.1,0c-0.1,0-0.2,0-0.3,0c-0.1,0-0.1,0-0.2,0
		c-0.1,0-0.2,0-0.3,0c0,0-0.1,0-0.1,0c-0.1,0-0.3,0.1-0.4,0.1c0,0,0,0,0,0c-0.1,0-0.2,0.1-0.2,0.1c0,0-0.1,0.1-0.1,0.1
		c0,0-0.1,0.1-0.1,0.1c-0.1,0.1-0.1,0.1-0.2,0.2c0,0,0,0,0,0c0,0-0.1,0.1-0.1,0.1c-0.1,0.1-0.1,0.1-0.2,0.2c0,0.1-0.1,0.2-0.1,0.2
		c0,0.1-0.1,0.1-0.1,0.1l-17.9,47c-0.5,1.2,0.1,2.5,1.3,3c0.3,0.1,0.5,0.2,0.8,0.2c0.9,0,1.8-0.6,2.2-1.5l16.7-43.8l48.6,44.7
		c0.4,0.4,1,0.6,1.6,0.6c0.6,0,1.2-0.3,1.7-0.7C99.5,71,99.4,69.5,98.5,68.6z"/>
	<path class="st2" d="M45.1,72.7c-0.3,0-0.6,0-0.8-0.2c-1.2-0.5-1.8-1.8-1.3-3l25.9-68c0.5-1.2,1.8-1.8,3-1.3c1.2,0.5,1.8,1.8,1.3,3
		l-25.9,68C47,72.1,46.1,72.7,45.1,72.7z"/>
	<path class="st1" d="M96.9,72.7c-0.9,0-1.8-0.6-2.2-1.5l-25.9-68c-0.5-1.2,0.1-2.5,1.3-3c1.2-0.5,2.5,0.1,3,1.3l25.9,68
		c0.5,1.2-0.1,2.5-1.3,3C97.5,72.6,97.2,72.7,96.9,72.7z"/>
</g>
</svg>
